<svg width="237" height="278" viewBox="0 0 237 278" fill="none" xmlns="http://www.w3.org/2000/svg">
<path d="M0 0H118.5C183.946 0 237 52.7313 237 117.779V278H118.5C53.0543 278 0 225.269 0 160.221V0Z" fill=""/>
<path d="M127.604 61.1538C137.371 61.1538 145.289 69.023 145.289 78.7302C145.289 69.023 153.206 61.1538 162.973 61.1538C153.206 61.1538 145.289 53.2845 145.289 43.5773C145.289 53.2845 137.371 61.1538 127.604 61.1538Z" fill="#e5d0ac"/>
<path d="M98.1309 35.2076C111.386 35.2076 122.131 45.8873 122.131 59.0614C122.131 45.8873 132.876 35.2076 146.131 35.2076C132.876 35.2076 122.131 24.5279 122.131 11.3539C122.131 24.5279 111.386 35.2076 98.1309 35.2076Z" fill="#e5d0ac"/>
<path d="M81.2889 61.1538C91.0556 61.1538 98.973 69.023 98.973 78.7302C98.973 69.023 106.89 61.1538 116.657 61.1538C106.89 61.1538 98.973 53.2845 98.973 43.5773C98.973 53.2845 91.0556 61.1538 81.2889 61.1538Z" fill="#e5d0ac"/>
<path d="M122.722 254.414C122.306 253.371 122.056 252.179 121.908 250.921C155.192 250.103 182.748 226.344 189.176 194.952C190.169 197.848 190.609 200.938 190.717 204.232C190.887 209.399 189.811 214.831 187.57 220.217C185.329 225.603 181.963 230.846 177.673 235.652C173.382 240.459 168.245 244.739 162.555 248.253C162.053 248.563 161.328 249.02 160.457 249.569L160.454 249.57L160.449 249.574L160.447 249.575C158.508 250.796 155.845 252.473 153.279 254.022C151.412 255.149 149.579 256.218 148.09 257.009C147.346 257.403 146.676 257.735 146.123 257.97C145.847 258.088 145.589 258.186 145.358 258.256C145.14 258.322 144.892 258.381 144.655 258.381H128.642C127.1 258.381 125.842 258 124.843 257.278C123.849 256.561 123.178 255.555 122.722 254.414Z" fill="#e5d0ac"/>
<path d="M188.274 163.03C188.777 162.175 189.174 161.223 189.461 160.186C190.107 157.852 190.185 155.129 189.725 152.185C189.265 149.239 188.271 146.107 186.809 142.965C185.348 139.822 183.442 136.72 181.203 133.835C178.963 130.949 176.429 128.33 173.741 126.127C171.055 123.924 168.259 122.173 165.509 120.983C162.761 119.793 160.091 119.177 157.655 119.205C156.49 119.219 155.388 119.38 154.366 119.689C170.902 128.842 183.344 144.421 188.274 163.03Z" fill="#e5d0ac"/>
<path fill-rule="evenodd" clip-rule="evenodd" d="M120.132 244.576C155.509 244.576 184.186 216.073 184.186 180.912C184.186 145.751 155.509 117.248 120.132 117.248C84.7563 117.248 56.0784 145.751 56.0784 180.912C56.0784 216.073 84.7563 244.576 120.132 244.576ZM119.3 202.418C119.3 191.563 110.503 182.78 99.6723 182.78C92.2689 182.78 87.2633 184.036 84.06 185.944C80.9267 187.811 79.4471 190.336 79.0879 193.199C78.7187 196.141 79.5214 199.578 81.2749 203.137C83.0203 206.68 85.6525 210.228 88.7645 213.34C91.8766 216.452 95.4239 219.083 98.9642 220.828C102.522 222.581 105.953 223.381 108.887 223.013C111.74 222.655 114.265 221.18 116.133 218.043C118.044 214.836 119.3 209.825 119.3 202.418ZM122.503 202.418C122.503 209.825 123.76 214.836 125.67 218.043C127.539 221.18 130.063 222.655 132.916 223.013C135.85 223.381 139.282 222.581 142.839 220.828C146.38 219.083 149.927 216.452 153.039 213.34C156.151 210.228 158.783 206.68 160.529 203.137C162.282 199.578 163.085 196.141 162.716 193.199C162.356 190.336 160.877 187.811 157.743 185.944C154.54 184.036 149.535 182.78 142.131 182.78C131.3 182.78 122.503 191.563 122.503 202.418ZM142.131 179.597C149.535 179.597 154.54 178.341 157.743 176.433C160.877 174.566 162.356 172.04 162.716 169.177C163.085 166.235 162.282 162.798 160.529 159.239C158.783 155.697 156.151 152.149 153.039 149.037C149.927 145.925 146.38 143.293 142.839 141.549C139.282 139.796 135.85 138.996 132.916 139.364C130.063 139.722 127.539 141.197 125.67 144.334C123.76 147.541 122.503 152.552 122.503 159.959C122.503 170.814 131.3 179.597 142.131 179.597ZM119.3 159.959C119.3 152.552 118.044 147.541 116.133 144.334C114.265 141.197 111.74 139.722 108.887 139.364C105.953 138.996 102.522 139.796 98.9643 141.549C95.4239 143.293 91.8766 145.925 88.7645 149.037C85.6525 152.149 83.0203 155.697 81.2749 159.239C79.5214 162.798 78.7187 166.235 79.0879 169.177C79.4471 172.04 80.9267 174.566 84.06 176.433C87.2633 178.341 92.2689 179.597 99.6723 179.597C110.503 179.597 119.3 170.814 119.3 159.959Z" fill="#e5d0ac"/>
<path d="M42.183 170.115C42.6826 170.57 43.3603 170.953 44.3133 171.321C46.1871 172.045 48.1769 172.475 50.122 172.962L50.2857 171.635C54.4344 140.479 79.1913 115.786 110.496 111.531L112.882 111.248C119.998 104.8 122.986 96.2268 123.639 87.8527C124.046 82.6373 123.545 77.5255 122.581 73.0975C122.145 71.0955 121.615 69.2332 121.032 67.5645C121.173 69.3756 121.261 71.2817 121.245 73.2349C121.205 78.187 120.496 83.4422 118.291 88.2211C116.302 92.5328 113.101 96.4471 108.114 99.3956C103.135 102.339 96.4181 104.296 87.4245 104.77C69.6148 105.709 58.0337 108.104 50.8796 113.829C43.7938 119.5 40.8775 128.597 40.8775 143.504C40.8775 149.001 40.7537 153.389 40.6547 156.897C40.6186 158.176 40.5858 159.338 40.5635 160.395C40.4789 164.404 40.5534 166.789 41.0853 168.366C41.3399 169.122 41.6941 169.669 42.183 170.115Z" fill="#e5d0ac"/>
<path d="M227.006 21.3043C227.006 21.9122 226.923 22.4538 226.756 22.929C226.589 23.4043 226.344 23.8022 226.022 24.1227C225.666 24.4764 225.221 24.7472 224.688 24.9351C224.154 25.112 223.542 25.2004 222.853 25.2004C222.163 25.2004 221.552 25.0788 221.018 24.8356C220.484 24.5925 220.034 24.2554 219.667 23.8243C219.3 23.4043 219.016 22.9014 218.816 22.3156C218.616 21.7298 218.516 21.0887 218.516 20.3924V18.95C218.516 18.2647 218.616 17.6292 218.816 17.0434C219.016 16.4466 219.3 15.9326 219.667 15.5015C220.034 15.0705 220.484 14.7334 221.018 14.4902C221.552 14.2471 222.163 14.1255 222.853 14.1255C223.553 14.1255 224.17 14.2194 224.704 14.4073C225.249 14.5952 225.7 14.8715 226.055 15.2363C226.367 15.5679 226.606 15.9658 226.773 16.43C226.939 16.8942 227.023 17.4247 227.023 18.0216H225.188C225.188 17.6458 225.143 17.3197 225.055 17.0434C224.966 16.756 224.832 16.5184 224.654 16.3305C224.465 16.1316 224.22 15.9879 223.92 15.8995C223.62 15.8 223.264 15.7502 222.853 15.7502C222.43 15.7502 222.058 15.8331 221.735 15.9989C221.424 16.1647 221.162 16.3858 220.951 16.6621C220.74 16.9495 220.584 17.2921 220.484 17.69C220.384 18.0769 220.334 18.4913 220.334 18.9334V20.3924C220.334 20.8456 220.384 21.2656 220.484 21.6524C220.584 22.0393 220.74 22.3764 220.951 22.6638C221.162 22.9511 221.424 23.1777 221.735 23.3435C222.058 23.5093 222.43 23.5922 222.853 23.5922C223.264 23.5922 223.62 23.548 223.92 23.4596C224.22 23.3601 224.46 23.2109 224.637 23.0119C224.815 22.824 224.949 22.5919 225.038 22.3156C225.127 22.0282 225.171 21.6911 225.171 21.3043H227.006ZM215.58 19.6629C215.58 20.7461 215.769 21.7685 216.147 22.7301C216.525 23.6806 217.048 24.5096 217.715 25.217C218.382 25.9354 219.166 26.4991 220.067 26.908C220.979 27.317 221.963 27.5215 223.019 27.5215C224.065 27.5215 225.038 27.317 225.939 26.908C226.85 26.488 227.64 25.9188 228.307 25.2004C228.974 24.493 229.497 23.664 229.875 22.7135C230.253 21.763 230.442 20.7461 230.442 19.6629C230.442 18.5908 230.253 17.585 229.875 16.6455C229.497 15.695 228.974 14.866 228.307 14.1586C227.64 13.4513 226.85 12.8986 225.939 12.5007C225.038 12.0918 224.065 11.8873 223.019 11.8873C221.963 11.8873 220.979 12.0918 220.067 12.5007C219.166 12.8986 218.382 13.4513 217.715 14.1586C217.048 14.866 216.525 15.695 216.147 16.6455C215.769 17.585 215.58 18.5908 215.58 19.6629ZM214.129 19.6629C214.14 18.3145 214.384 17.071 214.863 15.9326C215.341 14.7831 215.986 13.7994 216.798 12.9815C217.598 12.1636 218.538 11.5281 219.617 11.0749C220.695 10.6107 221.83 10.3786 223.019 10.3786C224.276 10.3786 225.444 10.6217 226.522 11.1081C227.601 11.5944 228.541 12.252 229.341 13.081C230.131 13.921 230.754 14.9047 231.21 16.0321C231.666 17.1595 231.894 18.3698 231.894 19.6629C231.894 20.9561 231.666 22.1719 231.21 23.3104C230.754 24.4377 230.131 25.4214 229.341 26.2614C228.541 27.1125 227.601 27.7812 226.522 28.2675C225.444 28.7539 224.276 28.997 223.019 28.997C221.763 28.997 220.59 28.7539 219.5 28.2675C218.421 27.7812 217.487 27.1125 216.697 26.2614C215.897 25.4214 215.268 24.4377 214.813 23.3104C214.357 22.1719 214.129 20.9561 214.129 19.6629Z" fill=""/>
</svg>
