<svg width="300" height="300" viewBox="0 0 300 300" fill="none" xmlns="http://www.w3.org/2000/svg">
<path fill-rule="evenodd" clip-rule="evenodd" d="M150 0C232.843 0 300 67.1573 300 150C300 232.843 232.843 300 150 300C67.1573 300 0 232.843 0 150C0 67.1573 67.1573 0 150 0ZM95.318 207.46C92.7166 209.442 92.2135 213.156 94.1943 215.758C96.1755 218.36 99.8912 218.863 102.493 216.882L150 180.703L197.507 216.882C200.109 218.863 203.825 218.36 205.806 215.758C207.787 213.156 207.283 209.442 204.682 207.46L150 165.818L95.318 207.46ZM77.7196 99.9881C75.1695 97.9412 71.443 98.3488 69.396 100.899C67.3491 103.449 67.7567 107.175 70.3067 109.222L118.781 148.132C121.332 150.179 125.058 149.772 127.105 147.222C129.152 144.671 128.745 140.944 126.194 138.897L77.7196 99.9881ZM230.604 100.899C228.557 98.3488 224.831 97.9412 222.28 99.9881L173.806 138.897C171.255 140.944 170.848 144.671 172.895 147.222C174.942 149.772 178.668 150.179 181.219 148.132L229.693 109.222C232.243 107.175 232.651 103.449 230.604 100.899Z" fill="#252525"/>
</svg>
